{"title":"American Heart 1992 DVDRip XviD titler","uid":9225115,"size":1492188688,"categoryP":"video","categoryS":"movies","magnet":"?xt=urn:btih:faf3980724962e63a81e4045fd74f781f1a07dc8&amp;dn=American+Heart+1992+DVDRip+XviD+titler&amp;tr=udp%3A%2F%2Ftracker.openbittorrent.com%3A80&amp;tr=udp%3A%2F%2Fopen.demonii.com%3A1337&amp;tr=udp%3A%2F%2Ftracker.coppersurfer.tk%3A6969&amp;tr=udp%3A%2F%2Fexodus.desync.com%3A6969","seeders":1,"leechers":0,"uploader":"movieZ.freak","files":5,"time":1384998762,"description":"SOURCE: DVD5\n\n &lt;a href=&quot;\nhttp://www.imdb.com/title/tt0103670/&quot; rel=&quot;nofollow&quot; target=&quot;_NEW&quot;&gt;\nhttp://www.imdb.com/title/tt0103670/&lt;/a&gt;\n\n &lt;a href=&quot;\nhttp://www.rottentomatoes.com/m/american_heart/&quot; rel=&quot;nofollow&quot; target=&quot;_NEW&quot;&gt;\nhttp://www.rottentomatoes.com/m/american_heart/&lt;/a&gt;\n\n &lt;a href=&quot;\nhttp://en.wikipedia.org/wiki/American_Heart&quot; rel=&quot;nofollow&quot; target=&quot;_NEW&quot;&gt;\nhttp://en.wikipedia.org/wiki/American_Heart&lt;/a&gt;\n\n\n\n- SAMPLE: Yes\n\n- SUBTITLE: English\n\n- LANGUAGE: English\n\n\n\nDVD MENU\n--------------- &lt;a href=&quot;\nhttp://someimage.com/GVPN&quot; rel=&quot;nofollow&quot; target=&quot;_NEW&quot;&gt;\nhttp://someimage.com/GVPN&lt;/a&gt;\n\n\n\nSCREENSHOTS:\n------------------- &lt;a href=&quot;\nhttp://someimage.com/F3IQ&quot; rel=&quot;nofollow&quot; target=&quot;_NEW&quot;&gt;\nhttp://someimage.com/F3IQ&lt;/a&gt;\n\n\n\nDIRECTOR: Martin Bell\n\n\nCAST: Jeff Bridges, Edward Furlong, Melvyn Hayward, Don Harvey, Tracey Kapisky, Lucinda Jenney, Wren Walker, Margaret Welsh\n\n\nPLOT:\n----------\nNick Kelson (Edward Furlong) is a troubled teenager whose mother has been dead for many years; he spends much of his time with other throwaway kids roaming the city. When Nick's father Jack (Jeff Bridges) is released from a long stretch in prison, the father and child reunion is a bumpy one. Jack senses an obligation to his son but is trying to focus on taking responsibility for his own life before he can extend himself. Nick is wary of his father's criminal background, but he also craves the stability of a real home life. Aware that a return to the city whose mean streets spawned his criminal career might pull him back into his old ways, Jack talks about moving to Alaska to make a fresh start, but it's not clear if Nick is part of his plan. The film's unsentimental look at its characters always on the verge of backsliding didn't endear it to ticket buyers, but it was lauded by many critics for its honesty and for Bridges' strong performance, which won an Independent Spirit award.\n\n\n\n***************************************\n\nAVI INFO:\n--------------\n- Duration: 1h 54mn\n\n- Bit rate: 1569 Kbps\n\n- Res: 688 x 512\n\n- Aspect Ratio: 4:3 (TV movie)\n\n- Codec: XviD 65\n\n- Audio: MP3, 128 Kbps\n\n***************************************\n\n\nGeneral\n------------\nFormat : AVI\nFormat/Info : Audio Video Interleave\nFile size : 1.37 GiB\nDuration : 1h 54mn\nOverall bit rate : 1704 Kbps\nWriting application : VirtualDubMod 1.5.10.2\nWriting library : VirtualDubMod build 2540\n\n\nVideo\n----------\nFormat : MPEG-4 Visual\nFormat profile : Advanced Simple@L5\nFormat settings, BVOP : 1\nFormat settings, QPel : No\nFormat settings, GMC : No warppoints\nFormat settings, Matrix : Custom\nCodec ID : XVID\nCodec ID/Hint : XviD\nDuration : 1h 54mn\nBit rate : 1569 Kbps\nWidth : 688 pixels\nHeight : 512 pixels\nDisplay aspect ratio : 4:3\nFrame rate : 23.976 fps\nColor space : YUV\nChroma subsampling : 4:2:0\nBit depth : 8 bits\nScan type : Progressive\nCompression mode : Lossy\nBits/(Pixel*Frame) : 0.186\nStream size : 1.26 GiB (92%)\nWriting library : XviD 65\n\n\nAudio\n----------\nFormat : MPEG Audio\nFormat version : Version 1\nFormat profile : Layer 3\nMode : Joint stereo\nMode extension : MS Stereo\nCodec ID : 55\nCodec ID/Hint : MP3\nDuration : 1h 54mn\nBit rate mode : Constant\nBit rate : 128 Kbps\nChannel(s) : 2 channels\nSampling rate : 48.0 KHz\nCompression mode : Lossy\nStream size : 105 MiB (8%)\nAlignment : Aligned on interleaves\nInterleave, duration : 83 ms (2.00 video frames)\nInterleave, preload duration : 504 ms\nWriting library : LAME3.99.5\nLanguage : English","torrent":{"xt":"urn:btih:faf3980724962e63a81e4045fd74f781f1a07dc8","amp;dn":"American+Heart+1992+DVDRip+XviD+titler","amp;tr":["udp%3A%2F%2Ftracker.openbittorrent.com%3A80","udp%3A%2F%2Fopen.demonii.com%3A1337","udp%3A%2F%2Ftracker.coppersurfer.tk%3A6969","udp%3A%2F%2Fexodus.desync.com%3A6969"],"infoHash":"faf3980724962e63a81e4045fd74f781f1a07dc8","infoHashBuffer":{"type":"Buffer","data":[250,243,152,7,36,150,46,99,168,30,64,69,253,116,247,129,241,160,125,200]},"announce":[],"urlList":[]}}